<svg width="50" height="38" viewBox="0 0 50 38" fill="none" xmlns="http://www.w3.org/2000/svg">
<path d="M21.9375 37.375C21.9375 37.375 18.875 37.375 18.875 34.3125C18.875 31.25 21.9375 22.0625 34.1875 22.0625C46.4375 22.0625 49.5 31.25 49.5 34.3125C49.5 37.375 46.4375 37.375 46.4375 37.375H21.9375ZM34.1875 19C36.6242 19 38.9611 18.032 40.684 16.309C42.407 14.5861 43.375 12.2492 43.375 9.8125C43.375 7.37582 42.407 5.03895 40.684 3.31596C38.9611 1.59297 36.6242 0.625 34.1875 0.625C31.7508 0.625 29.4139 1.59297 27.691 3.31596C25.968 5.03895 25 7.37582 25 9.8125C25 12.2492 25.968 14.5861 27.691 16.309C29.4139 18.032 31.7508 19 34.1875 19ZM16.474 37.375C16.02 36.4189 15.7936 35.3707 15.8125 34.3125C15.8125 30.1628 17.895 25.8906 21.7415 22.92C19.8216 22.3284 17.8213 22.0391 15.8125 22.0625C3.5625 22.0625 0.5 31.25 0.5 34.3125C0.5 37.375 3.5625 37.375 3.5625 37.375H16.474ZM14.2812 19C16.3118 19 18.2592 18.1934 19.695 16.7575C21.1309 15.3217 21.9375 13.3743 21.9375 11.3438C21.9375 9.31319 21.1309 7.36579 19.695 5.92996C18.2592 4.49414 16.3118 3.6875 14.2812 3.6875C12.2507 3.6875 10.3033 4.49414 8.86746 5.92996C7.43164 7.36579 6.625 9.31319 6.625 11.3438C6.625 13.3743 7.43164 15.3217 8.86746 16.7575C10.3033 18.1934 12.2507 19 14.2812 19Z" fill="#0EFCF0"/>
</svg>
