<svg width="44" height="44" viewBox="0 0 44 44" fill="none" xmlns="http://www.w3.org/2000/svg">
<path d="M18.9595 0.584595H31.2095V4.66793H18.9595V0.584595ZM39.415 13.6288L42.3427 10.7011L39.4558 7.81414L36.5301 10.7398C33.3245 8.17105 29.3498 6.75198 25.2421 6.70978C21.1345 6.66758 17.1314 8.00469 13.8737 10.5071L16.7729 13.4471C19.1951 11.7267 22.0911 10.7994 25.0621 10.7929L25.0825 10.795V25.0458L35.1949 35.1684C33.1985 37.1741 30.6517 38.5421 27.8772 39.099C25.1026 39.6559 22.2252 39.3768 19.6095 38.2968C16.9937 37.2169 14.7574 35.3848 13.1839 33.0328C11.6103 30.6807 10.7704 27.9145 10.7704 25.0846H16.8954L8.72875 16.9179L0.56208 25.0846H6.68708C6.6843 28.0208 7.38522 30.915 8.73111 33.5246C10.077 36.1342 12.0287 38.3833 14.4227 40.0834C16.8166 41.7836 19.5832 42.8852 22.4905 43.2962C25.3979 43.7071 28.3614 43.4153 31.1327 42.4452C33.9041 41.4752 36.4027 39.8551 38.4191 37.7207C40.4355 35.5863 41.911 32.9997 42.7221 30.1777C43.5332 27.3557 43.6562 24.3805 43.0808 21.5012C42.5054 18.6218 41.2484 15.9223 39.415 13.6288Z" fill="#0EFCF0"/>
</svg>
