<svg width="42" height="40" viewBox="0 0 42 40" fill="none" xmlns="http://www.w3.org/2000/svg">
<path d="M4.66665 39.375C3.54373 39.375 2.58279 38.9756 1.78381 38.1766C0.98348 37.3763 0.583313 36.4146 0.583313 35.2917V12.8334C0.583313 11.7105 0.98348 10.7495 1.78381 9.95054C2.58279 9.15021 3.54373 8.75004 4.66665 8.75004H12.8333V4.66671C12.8333 3.54379 13.2335 2.58217 14.0338 1.78183C14.8328 0.98286 15.7937 0.583374 16.9166 0.583374H25.0833C26.2062 0.583374 27.1679 0.98286 27.9682 1.78183C28.7672 2.58217 29.1666 3.54379 29.1666 4.66671V8.75004H37.3333C38.4562 8.75004 39.4179 9.15021 40.2182 9.95054C41.0172 10.7495 41.4166 11.7105 41.4166 12.8334V35.2917C41.4166 36.4146 41.0172 37.3763 40.2182 38.1766C39.4179 38.9756 38.4562 39.375 37.3333 39.375H4.66665ZM16.9166 8.75004H25.0833V4.66671H16.9166V8.75004Z" fill="#0EFCF0"/>
</svg>
